<svg width="58" height="56" viewBox="0 0 58 56" fill="none" xmlns="http://www.w3.org/2000/svg">
<path d="M29 0C21.1217 0 20.1381 0.034388 17.0448 0.165063C13.9563 0.302615 11.8538 0.763414 10.005 1.4443C8.09825 2.14581 6.47908 3.08805 4.86717 4.61717C3.25525 6.14629 2.25958 7.67999 1.5225 9.4911C0.80475 11.2449 0.316583 13.2394 0.174 16.1693C0.029 19.1037 0 20.0368 0 27.5104C0 34.9841 0.03625 35.9172 0.174 38.8516C0.319 41.7792 0.80475 43.776 1.5225 45.5298C2.262 47.3363 3.25525 48.8746 4.86717 50.4037C6.47908 51.9305 8.09583 52.8773 10.005 53.5766C11.8562 54.2551 13.9587 54.7205 17.0448 54.8558C20.1381 54.9933 21.1217 55.0209 29 55.0209C36.8783 55.0209 37.8619 54.9865 40.9553 54.8558C44.0413 54.7182 46.1463 54.2551 47.995 53.5766C49.8993 52.875 51.5209 51.9305 53.1328 50.4037C54.7423 48.8746 55.7404 47.3432 56.4775 45.5298C57.1928 43.776 57.6834 41.7792 57.826 38.8516C57.971 35.9172 58 34.9841 58 27.5104C58 20.0368 57.9637 19.1037 57.826 16.1693C57.681 13.2417 57.1928 11.2426 56.4775 9.4911C55.738 7.68229 54.7423 6.14629 53.1328 4.61717C51.5209 3.08805 49.9066 2.14352 47.995 1.4443C46.1463 0.763414 44.0413 0.300322 40.9553 0.165063C37.8619 0.0275104 36.8783 0 29 0ZM29 4.95188C36.7406 4.95188 37.6638 4.98856 40.7208 5.11465C43.5483 5.24074 45.0829 5.68549 46.1027 6.06605C47.4609 6.56353 48.4228 7.15959 49.4426 8.12016C50.4552 9.08303 51.0835 9.99775 51.6079 11.2862C52.0042 12.2536 52.4779 13.7094 52.606 16.3916C52.7438 19.294 52.7752 20.1651 52.7752 27.5104C52.7752 34.8557 52.7389 35.7292 52.5963 38.6292C52.4489 41.3115 51.9777 42.7673 51.5789 43.7347C51.0376 45.0231 50.4213 45.9355 49.4063 46.903C48.3938 47.8636 47.415 48.4596 46.0713 48.9571C45.0563 49.3331 43.4976 49.7824 40.6701 49.9039C37.5913 50.0346 36.685 50.0644 28.9275 50.0644C21.1676 50.0644 20.2613 50.03 17.1849 49.8947C14.355 49.7549 12.7963 49.3079 11.7812 48.9296C10.4062 48.4161 9.46125 47.8315 8.44867 46.8686C7.43125 45.908 6.78117 44.9795 6.27367 43.7049C5.87492 42.742 5.40608 41.2633 5.25867 38.5811C5.14992 35.6925 5.11125 34.8007 5.11125 27.476C5.11125 20.1491 5.14992 19.255 5.25867 16.332C5.40608 13.6498 5.87492 12.1734 6.27367 11.2105C6.78117 9.90375 7.43125 9.00966 8.44867 8.04451C9.46125 7.08393 10.4062 6.46495 11.7812 5.98581C12.7963 5.60525 14.3212 5.15821 17.1487 5.02065C20.2299 4.91749 21.1362 4.8831 28.8913 4.8831L29 4.95188ZM29 13.3838C20.7713 13.3838 14.1085 19.7112 14.1085 27.5104C14.1085 35.3165 20.7785 41.637 29 41.637C37.2288 41.637 43.8915 35.3096 43.8915 27.5104C43.8915 19.7043 37.2215 13.3838 29 13.3838ZM29 36.6806C23.6592 36.6806 19.3333 32.5769 19.3333 27.5104C19.3333 22.4439 23.6592 18.3403 29 18.3403C34.3408 18.3403 38.6667 22.4439 38.6667 27.5104C38.6667 32.5769 34.3408 36.6806 29 36.6806ZM47.9612 12.8267C47.9612 14.6493 46.4 16.128 44.4812 16.128C42.5599 16.128 41.0012 14.647 41.0012 12.8267C41.0012 11.0065 42.5623 9.52778 44.4812 9.52778C46.3976 9.52549 47.9612 11.0065 47.9612 12.8267Z" fill="#5E5B59"/>
</svg>
